<svg xmlns="http://www.w3.org/2000/svg" viewBox="0 0 1024 1024" fill="none">
  <defs>
    <linearGradient id="swirl" x1="430" y1="650" x2="640" y2="780" gradientUnits="userSpaceOnUse">
      <stop stop-color="#34d399"/>
      <stop offset="0.45" stop-color="#4f46e5"/>
      <stop offset="0.9" stop-color="#22d3ee"/>
    </linearGradient>
    <linearGradient id="cape" x1="200" y1="520" x2="340" y2="660" gradientUnits="userSpaceOnUse">
      <stop stop-color="#ef4444"/>
      <stop offset="1" stop-color="#f97316"/>
    </linearGradient>
    <filter id="shadow" x="-20%" y="-20%" width="140%" height="140%">
      <feDropShadow dx="0" dy="12" stdDeviation="18" flood-color="#0f172a" flood-opacity="0.18"/>
    </filter>
  </defs>
  <rect width="1024" height="1024" fill="none"/>
  <ellipse cx="420" cy="770" rx="180" ry="32" fill="#0f172a" opacity="0.08"/>
  <g filter="url(#shadow)">
    <path d="M302 498c-10-70 40-120 120-124l72-4c30-2 56 18 60 48l22 168c6 44-22 84-66 92l-80 16c-60 12-116-30-128-90l-10-54z" fill="#f8fafc" stroke="#0f172a" stroke-width="10" stroke-linecap="round" stroke-linejoin="round"/>
    <path d="M244 558c-10-24-10-52 0-78l64-152c6-14 22-22 36-16s22 22 16 36l-60 144c-8 20-2 44 14 58l30 26-16 38-48-22c-18-8-32-22-40-40z" fill="url(#cape)" stroke="#b91c1c" stroke-width="10" stroke-linecap="round" stroke-linejoin="round"/>
    <path d="M454 420c40 0 66 10 90 34" stroke="#0f172a" stroke-width="10" stroke-linecap="round"/>
    <circle cx="464" cy="500" r="18" fill="#fff" stroke="#0f172a" stroke-width="8"/>
    <circle cx="532" cy="492" r="18" fill="#fff" stroke="#0f172a" stroke-width="8"/>
    <path d="M480 524c14 16 42 16 56 0" stroke="#0f172a" stroke-width="10" stroke-linecap="round"/>
    <path d="M560 420 726 190" stroke="#8b5e3c" stroke-width="26" stroke-linecap="round"/>
    <path d="M730 182c8-12 26-14 38-6 12 10 14 26 6 38l-12 18-44-32 12-18z" fill="#8b5e3c" stroke="#0f172a" stroke-width="10" stroke-linecap="round" stroke-linejoin="round"/>
    <path d="M360 592c14 46 36 82 86 86 64 6 110-32 136-70l10 72c2 16-8 30-24 32l-136 20c-56 8-100-44-86-98l14-42z" fill="#0ea5e9" opacity="0.14"/>
    <path d="M360 592c14 46 36 82 86 86 64 6 110-32 136-70" stroke="#0f172a" stroke-width="10" stroke-linecap="round"/>
    <path d="M446 662c38 52 94 76 154 68 46-6 88-34 104-76 10-26 6-56-12-78" stroke="#0f172a" stroke-width="10" stroke-linecap="round"/>
    <path d="M420 620c-18 52 14 106 72 118 62 12 140-20 154-74 6-24-2-46-20-62" fill="url(#swirl)"/>
    <path d="M420 620c-18 52 14 106 72 118 62 12 140-20 154-74 6-24-2-46-20-62" stroke="#0f172a" stroke-width="10" stroke-linecap="round" stroke-linejoin="round"/>
    <path d="M612 602c-8 12-26 16-38 8s-16-26-8-38 26-16 38-8 16 26 8 38z" fill="#fff" stroke="#0f172a" stroke-width="8"/>
    <path d="M664 624c-8 12-26 16-38 8s-16-26-8-38 26-16 38-8 16 26 8 38z" fill="#f97316" stroke="#0f172a" stroke-width="8"/>
    <path d="M704 666c-8 12-26 16-38 8s-16-26-8-38 26-16 38-8 16 26 8 38z" fill="#14b8a6" stroke="#0f172a" stroke-width="8"/>
    <path d="M332 572c-12 14-34 18-50 10-18-10-24-32-14-50s32-24 50-14c18 10 24 32 14 50z" fill="#22c55e" stroke="#0f172a" stroke-width="10"/>
  </g>
  <g>
    <path d="M710 260c-52 0-96 36-96 90 0 12 2 24 6 34-40 8-70 44-70 86 0 50 40 90 90 90h256c60 0 108-48 108-108s-50-110-112-110c-10 0-20 2-30 4-10-52-52-86-108-86-16 0-34 4-48 10-16-14-36-20-56-20z" fill="#fff" stroke="#0f172a" stroke-width="12" stroke-linejoin="round"/>
    <circle cx="726" cy="346" r="12" fill="#0f172a"/>
    <circle cx="790" cy="346" r="12" fill="#0f172a"/>
    <path d="M740 388c10 12 28 18 44 12" stroke="#0f172a" stroke-width="12" stroke-linecap="round"/>
    <path d="M842 390 904 332" stroke="#22c55e" stroke-width="22" stroke-linecap="round" stroke-linejoin="round"/>
    <path d="M904 332 954 380" stroke="#22c55e" stroke-width="22" stroke-linecap="round" stroke-linejoin="round"/>
  </g>
  <g stroke="#0f172a" stroke-width="10" stroke-linecap="round" stroke-linejoin="round">
    <rect x="760" y="532" width="54" height="72" rx="10" fill="#fde68a"/>
    <rect x="682" y="548" width="60" height="62" rx="8" fill="#dbeafe"/>
    <rect x="748" y="616" width="56" height="38" rx="10" fill="#fef3c7"/>
    <rect x="642" y="600" width="48" height="52" rx="12" fill="#fff"/>
    <rect x="598" y="550" width="48" height="48" rx="12" fill="#ffedd5"/>
  </g>
</svg>
