<svg width="220" height="70" viewBox="0 0 220 70" fill="none" xmlns="http://www.w3.org/2000/svg">
  <defs>
    <linearGradient id="cpGradient" x1="0" y1="0" x2="1" y2="1">
      <stop offset="0%" stop-color="#38d47b" />
      <stop offset="100%" stop-color="#0b8f49" />
    </linearGradient>
  </defs>
  <g>
    <circle cx="35" cy="35" r="30" fill="url(#cpGradient)" opacity="0.2" />
    <circle cx="35" cy="35" r="26" fill="white" />
    <path d="M34 15C24 15 16 23 16 33C16 43 24 51 34 51H36V46H34C26.8 46 21 40.2 21 33C21 25.8 26.8 20 34 20H36V15H34Z" fill="url(#cpGradient)"/>
    <path d="M36 17V22H42C49.2 22 55 27.8 55 35C55 42.2 49.2 48 42 48H36V53H42C51.9 53 60 44.9 60 35C60 25.1 51.9 17 42 17H36Z" fill="url(#cpGradient)"/>
    <rect x="25" y="23" width="20" height="17" rx="3" fill="#e9f7ef" stroke="#1f9d5c" stroke-width="2"/>
    <rect x="28" y="20" width="4" height="6" rx="1" fill="#1f9d5c"/>
    <rect x="38" y="20" width="4" height="6" rx="1" fill="#1f9d5c"/>
    <path d="M29 34L32 37L41 29" stroke="#1f9d5c" stroke-width="2.5" stroke-linecap="round" stroke-linejoin="round"/>
    <path d="M48 43C44 40 39 39 34 39C32 39 30 39.2 28 39.5" stroke="#1f9d5c" stroke-width="2.5" stroke-linecap="round" stroke-linejoin="round"/>
    <circle cx="50" cy="44" r="6" fill="#1f9d5c"/>
    <text x="47" y="46" fill="white" font-family="Inter, Arial" font-size="7" font-weight="700">$</text>
  </g>
  <text x="75" y="32" font-family="Inter, Arial" font-size="20" font-weight="700" fill="#0e6d3b">CLIENT</text>
  <text x="150" y="32" font-family="Inter, Arial" font-size="20" font-weight="700" fill="#3bd36e">PRO</text>
  <text x="75" y="50" font-family="Inter, Arial" font-size="11" font-weight="600" letter-spacing="0.18em" fill="#0e6d3b">
    ORGANIZE. OPTIMIZE. EARN.
  </text>
</svg>

